<svg id="Layer_1" data-name="Layer 1" xmlns="http://www.w3.org/2000/svg" viewBox="0 0 427.53 52.59"><defs><style>.cls-1{fill:#fff;}.cls-2{fill:red;}</style></defs><path class="cls-1" d="M601,418.52V424H569.94V372.81h6.82v45.71Z" transform="translate(-508 -372.11)"/><path class="cls-1" d="M641.24,418.52V424H608.72V372.81h32.17v5.52H615.54v16.49h22.11v5.48H615.54v18.22Z" transform="translate(-508 -372.11)"/><path class="cls-1" d="M656.46,378.33v17.55h21.41v5.48H656.46V424h-6.82V372.81h31.71v5.52Z" transform="translate(-508 -372.11)"/><path class="cls-1" d="M725.51,378.33H709.09V424h-6.75V378.33H686v-5.52h39.55Z" transform="translate(-508 -372.11)"/><path class="cls-1" d="M733.59,424V372.81h6.82V424Z" transform="translate(-508 -372.11)"/><path class="cls-1" d="M755.46,395.22a11.42,11.42,0,0,1-4.22-9.19,12.37,12.37,0,0,1,2.16-7.14,14.63,14.63,0,0,1,6.12-5,21.6,21.6,0,0,1,9.09-1.81,20.57,20.57,0,0,1,9.68,2.14,15.5,15.5,0,0,1,6.26,5.7,14.43,14.43,0,0,1,2.16,7.63h-6.85a9.55,9.55,0,0,0-2.85-7.23q-2.85-2.72-8.4-2.72-5.18,0-7.84,2.28a7.55,7.55,0,0,0-2.67,6,6.24,6.24,0,0,0,1.23,3.83,10.9,10.9,0,0,0,3.83,3,37.72,37.72,0,0,0,6.86,2.53,41.38,41.38,0,0,1,9.58,3.79,15.19,15.19,0,0,1,5.44,5.05,12.83,12.83,0,0,1,1.78,6.87,12.21,12.21,0,0,1-2.2,7.23,14,14,0,0,1-6.24,4.8,26.05,26.05,0,0,1-18.75-.13,17.27,17.27,0,0,1-7.23-5.32,13.17,13.17,0,0,1-2.77-8.41h6.82a9,9,0,0,0,1.7,5.63,10.14,10.14,0,0,0,4.54,3.34,17.19,17.19,0,0,0,6.27,1.09q5.24,0,8.12-2.18a7.09,7.09,0,0,0,2.88-6,7.75,7.75,0,0,0-1-4.16,9.1,9.1,0,0,0-3.64-3,42.82,42.82,0,0,0-7.49-2.76Q759.69,398.76,755.46,395.22Z" transform="translate(-508 -372.11)"/><path class="cls-1" d="M830.84,378.33H814.42V424h-6.75V378.33H791.29v-5.52h39.55Z" transform="translate(-508 -372.11)"/><path class="cls-1" d="M835.67,417.76a3.92,3.92,0,0,1,1.07,2.83,3.69,3.69,0,0,1-1.07,2.74,4.08,4.08,0,0,1-3,1.06,4,4,0,0,1-3-1.08,3.69,3.69,0,0,1-1.07-2.72,3.75,3.75,0,0,1,4-3.94A4,4,0,0,1,835.67,417.76Z" transform="translate(-508 -372.11)"/><path class="cls-1" d="M883.36,416.56a15.75,15.75,0,0,1-6.45,6,21.83,21.83,0,0,1-10.14,2.16,18.89,18.89,0,0,1-10.48-2.93,19.3,19.3,0,0,1-7-8.32,29.14,29.14,0,0,1-2.5-12.44v-5.17a29.15,29.15,0,0,1,2.52-12.48,19.08,19.08,0,0,1,7.18-8.32,20.22,20.22,0,0,1,10.94-2.93,20.55,20.55,0,0,1,9.7,2.13,15.52,15.52,0,0,1,6.31,6,22,22,0,0,1,2.8,9h-6.82q-.81-5.73-3.59-8.67t-8.4-2.93a12.5,12.5,0,0,0-7.56,2.25,13.61,13.61,0,0,0-4.66,6.33,26.68,26.68,0,0,0-1.56,9.56V401a28,28,0,0,0,1.44,9.31,14.14,14.14,0,0,0,4.39,6.51,11.28,11.28,0,0,0,7.32,2.39,14.89,14.89,0,0,0,6.76-1.32,8.84,8.84,0,0,0,3.91-3.81,21.51,21.51,0,0,0,1.95-6.33h6.82A21.7,21.7,0,0,1,883.36,416.56Z" transform="translate(-508 -372.11)"/><path class="cls-1" d="M923.65,410.61H902.31L897.46,424h-7L910,372.81h6L935.53,424h-7Zm-2-5.52L913,381.18l-8.65,23.91Z" transform="translate(-508 -372.11)"/><rect class="cls-2" y="0.89" width="51" height="51"/></svg>